<svg width="16" height="17" viewBox="0 0 16 17" fill="none" xmlns="http://www.w3.org/2000/svg">
<path d="M1.33337 6.50006V3.8334C1.33337 3.47978 1.47385 3.14064 1.7239 2.89059C1.97395 2.64054 2.31309 2.50006 2.66671 2.50006H5.26671C5.4897 2.49788 5.70968 2.55166 5.90651 2.65648C6.10334 2.7613 6.27073 2.91381 6.39337 3.10006L6.93337 3.90006C7.05478 4.08442 7.22006 4.23574 7.41437 4.34047C7.60869 4.44519 7.82597 4.50003 8.04671 4.50006H13.3334C13.687 4.50006 14.0261 4.64054 14.2762 4.89059C14.5262 5.14064 14.6667 5.47978 14.6667 5.8334V12.5001C14.6667 12.8537 14.5262 13.1928 14.2762 13.4429C14.0261 13.6929 13.687 13.8334 13.3334 13.8334H2.66671C2.31309 13.8334 1.97395 13.6929 1.7239 13.4429C1.47385 13.1928 1.33337 12.8537 1.33337 12.5001V11.8334M1.33337 9.16667H8.00004M8.00004 9.16667L6.00004 11.1667M8.00004 9.16667L6.00004 7.16667" stroke="currentColor" stroke-width="1.5" stroke-linecap="round" stroke-linejoin="round"/>
</svg>
