<svg width="16" height="17" viewBox="0 0 16 17" fill="none" xmlns="http://www.w3.org/2000/svg">
<path d="M14.6667 7.16667C14.6667 6.74667 14.4667 6.35334 14.1334 6.1L8.80004 2.1C8.56925 1.92691 8.28853 1.83334 8.00004 1.83334C7.71155 1.83334 7.43084 1.92691 7.20004 2.1L1.86671 6.1C1.70111 6.2242 1.56671 6.38524 1.47414 6.57038C1.38157 6.75553 1.33337 6.95968 1.33337 7.16667M14.6667 7.16667V13.8333C14.6667 14.187 14.5262 14.5261 14.2762 14.7761C14.0261 15.0262 13.687 15.1667 13.3334 15.1667H2.66671C2.31309 15.1667 1.97395 15.0262 1.7239 14.7761C1.47385 14.5261 1.33337 14.187 1.33337 13.8333V7.16667M14.6667 7.16667L8.68671 10.9667C8.48089 11.0956 8.24292 11.164 8.00004 11.164C7.75716 11.164 7.51919 11.0956 7.31337 10.9667L1.33337 7.16667" stroke="currentColor" stroke-width="1.5" stroke-linecap="round" stroke-linejoin="round"/>
</svg>
